<svg version="1.1" id="prefix__Icons" xmlns="http://www.w3.org/2000/svg" x="0" y="0" viewBox="0 0 48 48"
  xml:space="preserve">
  <style>
    .prefix__st29,
    .prefix__st4 {
      fill: none;
      stroke: #45413c;
      stroke-linecap: round;
      stroke-linejoin: round;
      stroke-miterlimit: 10
    }

    .prefix__st29 {
      fill: #fff
    }
  </style>
  <path
    d="M44.5 27.9c-1.4-.1-2.7-.7-3.7-1.6-1 1-2.4 1.6-4 1.6-1.5 0-2.9-.6-3.9-1.6-1 1-2.4 1.6-4 1.6-3.1 0-5.6-2.5-5.6-5.6V21c-4.8 1.6-8.1 6.2-8.1 11.4 0 6.6 5.3 12 11.9 12.1h17.4V27.9z"
    fill="#00b8f0" />
  <path
    d="M27.1 44.5c-2.5-3.4-4-7.5-4-12.1 0-2.5.5-4.8 1.3-7-.6-.9-1-2-1-3.2V21c-4.8 1.6-8.1 6.2-8.1 11.4-.1 6.6 5.2 12 11.8 12.1z"
    fill="#009fd9" />
  <path class="prefix__st4"
    d="M44.5 27.9c-1.4-.1-2.7-.7-3.7-1.6-1 1-2.4 1.6-4 1.6-1.5 0-2.9-.6-3.9-1.6-1 1-2.4 1.6-4 1.6-3.1 0-5.6-2.5-5.6-5.6V21c-4.8 1.6-8.1 6.2-8.1 11.4 0 6.6 5.3 12 11.9 12.1h17.4V27.9z" />
  <path
    d="M27.1 44.5c-6.6-.1-11.9-5.5-11.9-12.1 0-6.8 5.7-12.4 12.8-12.1.8-1.1 1.5-2.4.6-4-.4-.7-.3-1.6.1-2.2.5-.7 1.4-1.1 2.3-.9 1 .2 1.8 0 2.3-.6.6-.7.7-1.7.3-2.5-.4-.7-.1-1.6.6-2 .5-.3.9-.4 1.5-.3l.9.3c.7.2 1.4.1 2-.2l.4-.2s-.4-.4-1.3-.8C34 4.6 29.5 3.5 24.7 4 15.4 5.2 8 12.7 7 22c-1.4 12.2 8.2 22.5 20.1 22.5z"
    fill="#fff" />
  <path
    d="M15.4 34.6c-3.7-4.1-5.8-9.8-5.2-15.9.4-3.8 1.9-7.3 4.2-10.2-4 3.2-6.9 8-7.4 13.5-1.3 12.2 8.2 22.5 20.1 22.5-5.9-.1-10.7-4.4-11.7-9.9z"
    fill="#f0f0f0" />
  <path class="prefix__st4"
    d="M27.1 44.5c-6.6-.1-11.9-5.5-11.9-12.1 0-6.8 5.7-12.4 12.8-12.1.8-1.1 1.5-2.4.6-4-.4-.7-.3-1.6.1-2.2.5-.7 1.4-1.1 2.3-.9 1 .2 1.8 0 2.3-.6.6-.7.7-1.7.3-2.5-.4-.7-.1-1.6.6-2 .5-.3.9-.4 1.5-.3l.9.3c.7.2 1.4.1 2-.2l.4-.2s-.4-.4-1.3-.8C34 4.6 29.5 3.5 24.7 4 15.4 5.2 8 12.7 7 22c-1.4 12.2 8.2 22.5 20.1 22.5z" />
  <path id="prefix__XMLID_16253_" class="prefix__st4"
    d="M44.5 32.4c-1.2-.2-2.3-.7-3.1-1.5-1 .9-2.3 1.5-3.8 1.5s-2.8-.6-3.8-1.5c-1.4 1-3.1 1.5-4.9 1.5-4.7 0-8.5-3.8-8.5-8.5v-1.4" />
  <path id="prefix__XMLID_16252_" class="prefix__st4"
    d="M44.5 39c-.9-.4-1.6-1-1.6-1.2-1 1-2.4 1.7-4 1.7-1.4 0-2.8-.5-4-1.6-1.7 1-3.8 1.6-6 1.6-6.4 0-11.6-5.2-11.6-11.6v-2.3" />
  <path id="prefix__XMLID_16251_" class="prefix__st29"
    d="M43.5 12.6c.6-.2.9-.9.6-1.5-.2-.6-.9-.9-1.5-.6h-.1c-.4-.5-1.2-.8-1.9-.5-.8.3-1.2 1.3-.9 2.1.3.8 1.3 1.2 2.1.9.3-.1.5-.3.6-.5.4.2.8.3 1.1.1z" />
  <circle id="prefix__XMLID_16250_" class="prefix__st29" cx="32.5" cy="17.3" r="1.2" />
  <circle id="prefix__XMLID_16249_" class="prefix__st29" cx="36.3" cy="2.8" r="1.2" />
  <circle id="prefix__XMLID_16248_" class="prefix__st29" cx="32.1" cy="22.9" r="1.6" />
</svg>